<svg xmlns="http://www.w3.org/2000/svg" xmlns:xlink="http://www.w3.org/1999/xlink" width="0" height="0" style="position:absolute">
    <defs>
      
        <svg viewBox="0 0 48 48" width="48" height="48" id="arrow-left" y="0"><title>70 Basic icons by Xicons.co</title><path d="M45 26H3a2 2 0 0 1 0-4h42a2 2 0 0 1 0 4z" fill="#4dbe86"></path><path d="M19 43a2 2 0 0 1-1.41-.59l-17-17A2 2 0 0 1 0 24a2.07 2.07 0 0 1 .59-1.44l17-17a2 2 0 0 1 2.83 2.83L4.81 24l15.57 15.57A2 2 0 0 1 19 43z" fill="#4dbe86"></path></svg>
      
        <svg viewBox="0 0 48 48" width="48" height="48" id="arrow-right" y="48"><title>70 Basic icons by Xicons.co</title><path d="M44 26H2a2 2 0 0 1 0-4h42a2 2 0 0 1 0 4z" fill="#e85566"></path><path d="M28 43a2 2 0 0 1-1.41-3.41L42.19 24 26.62 8.43a2 2 0 0 1 2.82-2.83l17 17A2 2 0 0 1 47 24a2.07 2.07 0 0 1-.59 1.44l-17 17A2 2 0 0 1 28 43z" fill="#e85566"></path></svg>
      
        <svg viewBox="0 0 48 48" width="48" height="48" id="attach" y="96"><title>70 Basic icons by Xicons.co</title><path d="M24 48A15 15 0 0 1 9 33V11a11 11 0 0 1 22 0v20c-.06 4.42-3.24 8-7.09 8a6.45 6.45 0 0 1-4.61-2 8.43 8.43 0 0 1-2.3-6V16.87a2 2 0 0 1 2-2 2 2 0 0 1 2 2V31a4.44 4.44 0 0 0 1.16 3.19 2.48 2.48 0 0 0 1.76.79C25.55 35 27 33.16 27 31V11a7 7 0 0 0-14 0v22a11 11 0 0 0 22 0V16.6a2 2 0 0 1 4 0V33a15 15 0 0 1-15 15z" fill="#876cb7"></path></svg>
      
        <svg viewBox="0 0 48 48" width="48" height="48" id="bullet-list" y="144"><title>70 Basic icons by Xicons.co</title><path d="M44.88 13H15.13A2.07 2.07 0 0 1 13 11a2.07 2.07 0 0 1 2.13-2h29.75A2.07 2.07 0 0 1 47 11a2.07 2.07 0 0 1-2.12 2zM44.88 25H15.13a2 2 0 1 1 0-4h29.75a2 2 0 1 1 0 4zM44.88 37H15.13a2 2 0 1 1 0-4h29.75a2 2 0 1 1 0 4z" fill="#817ec5"></path><circle cx="6" cy="11" r="3" fill="#817ec5"></circle><circle cx="6" cy="23" r="3" fill="#817ec5"></circle><circle cx="6" cy="35" r="3" fill="#817ec5"></circle></svg>
      
        <svg viewBox="0 0 48 48" width="48" height="48" id="clock" y="192"><title>70 Basic icons by Xicons.co</title><path d="M24 46a22 22 0 1 1 22-22 22 22 0 0 1-22 22z" fill="#38b1e7"></path><circle cx="24" cy="24" r="16" fill="#b7e3f6"></circle><path d="M29.09 29.78a2 2 0 0 1-1.19-.39l-5.09-3.78A2 2 0 0 1 22 24v-8a2 2 0 0 1 4 0v7l4.29 3.18a2 2 0 0 1-1.2 3.6z" fill="#495660"></path></svg>
      
        <svg viewBox="0 0 48 48" width="48" height="48" id="close" y="240"><title>70 Basic icons by Xicons.co</title><path d="M41 43a2 2 0 0 1-1.41-.59L5.62 8.44a2 2 0 0 1 2.82-2.82l33.94 33.94A2 2 0 0 1 41 43z" fill="#ea802a"></path><path d="M7 43a2 2 0 0 1-1.41-3.41L39.56 5.62a2 2 0 0 1 2.83 2.83L8.44 42.38A2 2 0 0 1 7 43z" fill="#ea802a"></path></svg>
      
        <svg viewBox="0 0 48 48" width="48" height="48" id="cloud-download" y="288"><title>70 Basic icons by Xicons.co</title><path d="M45.81 19.56a9.5 9.5 0 0 0-6.26-3.86v-.88a12.72 12.72 0 0 0-25.29-2 13.34 13.34 0 0 0-2.22-.18C5.42 12.67 0 17.59 0 23.64s3.64 10.24 9.36 10.75h29.09c4.75-.2 9.55-3.29 9.55-8.78a9.52 9.52 0 0 0-2.19-6.05z" fill="#aedff5"></path><path d="M31.52 38.62a2 2 0 0 0-2.82-.22L26 40.69V22.92a2 2 0 0 0-4 0v17.75l-2.7-2.31a2 2 0 1 0-2.61 3l6 5.13h.06l.12.09.22.13.14.06.25.08h.12a2 2 0 0 0 .4.15 2 2 0 0 0 .39 0h.11l.27-.09h.06a2 2 0 0 0 .42-.26l6-5.09a2 2 0 0 0 .27-2.94z" fill="#38b1e7"></path></svg>
      
        <svg viewBox="0 0 48 48" width="48" height="48" id="columns" y="336"><title>70 Basic icons by Xicons.co</title><path d="M42 6H6a2 2 0 0 0-2 2v12a2 2 0 0 0 2 2h36a2 2 0 0 0 2-2V8a2 2 0 0 0-2-2zM42 28H6a2 2 0 0 0-2 2v12a2 2 0 0 0 2 2h36a2 2 0 0 0 2-2V30a2 2 0 0 0-2-2z" fill="#4dbe86"></path></svg>
      
        <svg viewBox="0 0 48 48" width="48" height="48" id="customize" y="384"><title>70 Basic icons by Xicons.co</title><path d="M45 43H3a2 2 0 0 1 0-4h42a2 2 0 0 1 0 4z" fill="#c8c8c8"></path><rect x="8" y="35" width="14" height="12" rx="2" ry="2" fill="#f6c253"></rect><path d="M45 26H3a2 2 0 0 1 0-4h42a2 2 0 0 1 0 4zM45 9H3a2 2 0 0 1 0-4h42a2 2 0 0 1 0 4z" fill="#c8c8c8"></path><rect x="8" y="1" width="14" height="12" rx="2" ry="2" fill="#ec5044"></rect><rect x="26" y="18" width="14" height="12" rx="2" ry="2" fill="#4dbe86"></rect></svg>
      
        <svg viewBox="0 0 48 48" width="48" height="48" id="diamond" y="432"><title>70 Basic icons by Xicons.co</title><path d="M1 18.42l21.46 25.74a2 2 0 0 0 3.07 0L47 18.42H1z" fill="#299acc"></path><path d="M36.6 3.42H11.4a4 4 0 0 0-3.53 2.11L1 18.42h46L40.13 5.53a4 4 0 0 0-3.53-2.11z" fill="#38b1e7"></path><path d="M22.08 43.38L15 18.42h18l-7.08 25a2 2 0 0 1-3.84-.04z" fill="#61c0ea"></path><path fill="#89d0ef" d="M33 18.42H15l-1-15h20l-1 15z"></path></svg>
      
        <svg viewBox="0 0 48 48" width="48" height="48" id="download" y="480"><title>70 Basic icons by Xicons.co</title><path d="M42 48H6a2 2 0 0 1-2-2V35.61a2.07 2.07 0 0 1 1.66-2.08A2 2 0 0 1 8 35.5V44h32v-8.39a2.07 2.07 0 0 1 1.66-2.08 2 2 0 0 1 2.34 2V46a2 2 0 0 1-2 2z" fill="#4dbe86"></path><path d="M24 37a2 2 0 0 1-2-2V2a2 2 0 0 1 4 0v33a2 2 0 0 1-2 2z" fill="#4dbe86"></path><path d="M24 38a2.07 2.07 0 0 1-1.44-.59l-14-14a2 2 0 0 1 2.83-2.83L24 33.19l12.61-12.6a2 2 0 0 1 2.83 2.83l-14 14A2 2 0 0 1 24 38z" fill="#4dbe86"></path></svg>
      
  </defs>
</svg>
