<svg xmlns="http://www.w3.org/2000/svg" viewBox="0 0 48 48"><title>70 Basic icons by Xicons.co</title><path d="M45.81,19.56a9.5,9.5,0,0,0-6.26-3.86q0-.44,0-0.88a12.72,12.72,0,0,0-25.29-2,13.34,13.34,0,0,0-2.22-.18C5.42,12.67,0,17.59,0,23.64S3.64,33.88,9.36,34.39l29.09,0C43.2,34.19,48,31.1,48,25.61A9.52,9.52,0,0,0,45.81,19.56Z" fill="#aedff5"/><path d="M31.52,38.62a2,2,0,0,0-2.82-.22L26,40.69V22.92a2,2,0,0,0-4,0V40.67l-2.7-2.31a2,2,0,1,0-2.61,3l6,5.13,0.06,0,0.12,0.09,0.22,0.13,0.14,0.06,0.25,0.08,0.12,0A2,2,0,0,0,24,47h0a2,2,0,0,0,.39,0l0.11,0,0.27-.09,0.06,0,0,0a2,2,0,0,0,.42-0.26l6-5.09A2,2,0,0,0,31.52,38.62Z" fill="#38b1e7"/></svg>